# xmcd CD database file
#
# Track frame offsets:
#	150
#	38639
#	84122
#	116429
#	153035
#	183296
#	228430
#
# Disc length: 3393 seconds
#
# Revision: 0
# Processed by: cddbd v1.4PL0 Copyright (c) Steve Scherf et al.
# Submitted via: CDex 1.50Beta7
#
DISCID=3e0d3f07
DTITLE=Kinju Quintet - Seven Moments
DYEAR=2001
DGENRE=Jazz
TTITLE0=Turtle Dance
TTITLE1=Dunes and Shadows
TTITLE2=Hackensack
TTITLE3=Sophical
TTITLE4=The Shaman
TTITLE5=Chameleon Grin
TTITLE6=The Seventh Moment
EXTD=YEAR: 2001
EXTT0=
EXTT1=
EXTT2=
EXTT3=
EXTT4=
EXTT5=
EXTT6=
PLAYORDER=
